<svg xmlns="http://www.w3.org/2000/svg" width="218.459" height="41.198" viewBox="0 0 57.801 10.9"><path d="M2204.61 4935.233c-63.889 1.99-100.382-18.034-168.283-91.424-73.956-79.446-84.075-121.133-49.792-221.353 47.282-143.494-35.471-54.686 1265.994-1356.823 865.364-866.71 1184.426-1181.736 1229.261-1215.133 50.648-37.19 73.872-49.65 142.39-73.09 117.605-40.23 156.574-30.084 247.727 62.442 78.02 80.764 90.534 120.729 66.18 213.037-13.427 52.451-33.825 88.324-266.606 473.161-285.957 471.655-301.458 493.21-427.055 585.84-116.015 85.738-173.634 106.352-307.87 110.736-144.76 3.468-153.641 8.312-310.078 162.057-84.394 83.049-129.39 132.754-152.856 169.677l-32.778 50.944-3.093 106.706c-1.963 61.171-11.112 127.509-20.557 155.12-32.885 96.13-127.585 225.144-221.453 304.21-63.027 52.261-812.894 507.435-888.623 538.759-36.843 15.312-74.304 24.515-102.508 25.133z" style="stroke-width:.960951" transform="scale(.0027 -.00231) rotate(45 14369.408 16411.01)"/><path d="M41.422 2.597v.575l-.175.05c-.201.056-.241.081-.258.17-.02.092.028.176.124.208.067.025.294-.032 1.794-.459 1.808-.516 1.85-.533 1.85-.67s-.16-.203-.361-.149l-.067.018-.002-.168v-.167h-1.445c-.79 0-1.444.003-1.45.008a8.79 8.79 0 0 0-.01.584zM41.422 4.346c0 .212-.011.399-.024.41a.746.746 0 0 1-.167.06.651.651 0 0 0-.198.089c-.104.088-.025.28.122.294.08.01 3.493-.968 3.548-1.015.052-.044.056-.155.01-.23-.04-.064-.157-.085-.287-.05l-.1.03v-.392c0-.216-.005-.398-.015-.406-.01-.008-.376.093-.817.223-.444.13-1.09.317-1.44.416l-.632.182zM41.42 5.946l.002.394-.181.057c-.224.067-.25.09-.252.21 0 .107.028.138.141.17.11.029 3.55-.952 3.596-1.024.105-.175-.074-.328-.31-.265l-.09.025v-.804l-1.436.408c-.791.226-1.445.416-1.454.424a3.407 3.407 0 0 0-.016.405zM41.422 7.517c0 .212-.011.399-.024.41a.746.746 0 0 1-.167.06.64.64 0 0 0-.197.087c-.105.09-.042.258.113.3.077.019 3.476-.95 3.547-1.01.065-.06.076-.128.036-.208-.046-.085-.155-.116-.292-.08l-.111.029v-.399c0-.219-.008-.399-.017-.4-.01.001-.662.186-1.453.412l-1.435.41zM41.422 9.122l-.002.4-.156.046a.749.749 0 0 0-.207.088c-.057.05-.063.188-.01.234.108.092.125.087 1.912-.422 1.685-.48 1.742-.5 1.777-.568.038-.082-.004-.19-.092-.236-.054-.026-.187-.016-.287.02-.013.005-.026-.173-.028-.397l-.002-.407-1.437.408c-.791.226-1.445.416-1.454.424a3.281 3.281 0 0 0-.014.41zM42.345 10.536l.438.364.1-.006.099-.007.65-.555c.52-.447.653-.57.674-.623.026-.072.028-.23.002-.23-.025 0-2.377.673-2.389.683-.007.006.186.174.426.374z"/><g aria-label="СТО ВИНТИК" style="font-size:28px;line-height:1.25;font-family:&quot;SF TransRobotics&quot;;-inkscape-font-specification:&quot;SF TransRobotics&quot;;stroke-width:.75"><path d="M0 3.107q0-.276.207-.484.218-.207.484-.207H5.77l-.692 1.501H2.074V7.83H5.77L5.077 9.33H.691q-.266 0-.484-.197Q0 8.925 0 8.639zM8.09 3.917H6.243V2.416h5.768v1.501h-1.847V9.33H8.09zM12.555 3.107q0-.276.207-.484.217-.207.484-.207h4.386q.267 0 .474.207.217.208.217.484V8.64q0 .286-.217.494-.207.197-.474.197h-4.386q-.267 0-.484-.197-.207-.208-.207-.494zm3.694 4.722V3.917h-1.62V7.83zM21.743 2.302h5.077q.266 0 .474.208.217.207.217.484v2.074q0 .277-.207.484-.208.208-.465.208.238.03.455.177.217.149.217.396v2.192q0 .287-.217.494-.208.198-.474.198h-5.077zm3.694 2.885V3.804h-1.62v1.383zm0 2.528V6.333h-1.62v1.382zM28.222 2.302h2.075v3.082l1.62-3.082h2.074v6.915h-2.074V6.135l-1.62 3.082h-2.075zM34.702 2.302h2.074v2.885h1.62V2.302h2.075v6.915h-2.075V6.333h-1.62v2.884h-2.074zM45.355 2.377h2.074V5.46l1.62-3.082h2.074v6.915H49.05V6.21l-1.62 3.082h-2.074zM51.834 2.377h2.075v2.371l.997-1.847q.139-.267.346-.395.208-.129.524-.129H57.8l-.692 1.502h-.484l-1.067 1.956 2.045 3.457h-2.42l-1.274-2.37v2.37h-2.075z"/></g></svg>