<svg xmlns="http://www.w3.org/2000/svg" xmlns:xlink="http://www.w3.org/1999/xlink" width="302.015" height="96.364" viewBox="0 0 79.909 25.496"><defs><linearGradient id="a"><stop offset="0" style="stop-color:#a57867;stop-opacity:1"/><stop offset="1" style="stop-color:#a57867;stop-opacity:0"/></linearGradient><linearGradient xlink:href="#a" id="g" x1="34.865" x2="36.803" y1="9.191" y2="-10.042" gradientTransform="matrix(.26459 0 0 .39985 40.354 .94)" gradientUnits="userSpaceOnUse"/><linearGradient xlink:href="#a" id="e" x1="34.865" x2="36.803" y1="9.191" y2="-10.042" gradientTransform="matrix(.26459 0 0 .41776 .015 .231)" gradientUnits="userSpaceOnUse"/><linearGradient xlink:href="#a" id="d" x1="34.865" x2="36.803" y1="9.191" y2="-10.042" gradientTransform="matrix(.26459 0 0 .32932 7.04 2.495)" gradientUnits="userSpaceOnUse"/><linearGradient xlink:href="#a" id="c" x1="34.865" x2="36.803" y1="9.191" y2="-10.042" gradientTransform="matrix(.26459 0 0 .26459 14.135 4.255)" gradientUnits="userSpaceOnUse"/><linearGradient xlink:href="#a" id="b" x1="34.865" x2="36.803" y1="9.191" y2="-10.042" gradientTransform="matrix(.26459 0 0 .26459 26.228 4.444)" gradientUnits="userSpaceOnUse"/><linearGradient xlink:href="#a" id="f" x1="34.865" x2="36.803" y1="9.191" y2="-10.042" gradientTransform="matrix(.26459 0 0 .33286 30.234 2.215)" gradientUnits="userSpaceOnUse"/></defs><g style="fill:#fc6457;fill-opacity:1;stroke-width:.370419;stroke-miterlimit:4;stroke-dasharray:none"><path d="M37.67.704c-.125.1-.156.193-.146.423.01.25.07.335.326.442.363.157.037.147 4.983.148 3.291.002 4.496-.004 4.645-.023a1.27 1.27 0 0 0 .41-.113c.3-.126.354-.206.351-.505-.005-.26-.057-.345-.279-.456-.125-.063-.232-.088-1.405-.336-1.44-.303-1.51-.313-1.925-.259-.383.05-.532.11-.795.321-.282.23-.308.237-.897.242-.318.002-.498-.006-.613-.028l-.16-.03-.208-.168a1.819 1.819 0 0 0-.333-.22c-.246-.103-.67-.159-1-.135-.218.018-2.508.498-2.711.57a.85.85 0 0 0-.243.127zM41.585 2.57v.576l-.175.05c-.2.056-.24.08-.258.17-.02.092.028.176.124.208.067.025.294-.032 1.794-.46 1.808-.515 1.85-.532 1.85-.67 0-.136-.16-.202-.36-.148l-.068.018-.002-.168v-.167h-1.445a62.8 62.8 0 0 0-1.45.008 8.79 8.79 0 0 0-.01.584zm0 1.75c0 .212-.01.399-.024.41a.746.746 0 0 1-.167.06.651.651 0 0 0-.198.089c-.104.088-.025.28.122.294.08.01 3.493-.968 3.548-1.015.052-.044.056-.155.01-.23-.04-.064-.157-.085-.287-.05l-.1.03v-.392c0-.216-.005-.398-.015-.406-.01-.008-.376.093-.817.223-.444.13-1.09.317-1.44.416l-.632.182zm-.002 1.6.002.394-.18.057c-.225.067-.25.09-.253.21 0 .107.028.138.141.17.11.029 3.55-.952 3.596-1.024.105-.175-.074-.328-.31-.265l-.09.025v-.804l-1.436.408c-.79.226-1.445.416-1.454.424a3.407 3.407 0 0 0-.016.405zm.002 1.57c0 .213-.01.4-.024.41a.746.746 0 0 1-.167.06.64.64 0 0 0-.197.088c-.105.09-.042.258.113.3.077.019 3.476-.95 3.547-1.01.065-.06.076-.128.036-.208-.046-.085-.155-.116-.292-.08l-.11.029v-.4c0-.218-.009-.398-.018-.4-.01.002-.662.187-1.453.413l-1.435.41zm0 1.606-.002.4-.156.046a.749.749 0 0 0-.207.088c-.057.05-.063.188-.01.234.108.092.125.087 1.912-.422 1.685-.48 1.742-.5 1.777-.568.038-.082-.004-.19-.092-.236-.054-.026-.187-.016-.287.02-.013.005-.026-.173-.028-.397l-.002-.407-1.437.408c-.79.226-1.445.416-1.454.424a3.281 3.281 0 0 0-.014.41zm.923 1.414.438.364.1-.006.1-.007.65-.555c.52-.447.652-.57.673-.623.026-.072.028-.23.002-.23-.025 0-2.377.673-2.389.683-.007.006.186.174.426.374z" style="fill:#fc6457;fill-opacity:1;stroke:#000;stroke-width:.370419;stroke-miterlimit:4;stroke-dasharray:none;stroke-opacity:1" transform="matrix(1.71567 0 0 2.26682 -33.97 .418)"/></g><g style="stroke-width:.396878;stroke-miterlimit:4;stroke-dasharray:none"><path d="m26.287 4.503.001 6.915h2.074l1.62-3.082v3.083h2.073V4.504h-2.074l-1.62 3.082V4.503Z" style="font-size:28px;line-height:1.25;font-family:&quot;SF TransRobotics&quot;;-inkscape-font-specification:&quot;SF TransRobotics&quot;;mix-blend-mode:normal;fill:url(#b);fill-opacity:1;stroke:#000;stroke-width:.396878;stroke-miterlimit:4;stroke-dasharray:none;stroke-opacity:1" transform="matrix(1.71567 0 0 1.71567 .212 0)"/><path d="M14.195 4.314v6.915h2.073V8.345h1.62v2.884h2.076V4.314h-2.076V7.2h-1.62V4.314Z" style="font-size:28px;line-height:1.25;font-family:&quot;SF TransRobotics&quot;;-inkscape-font-specification:&quot;SF TransRobotics&quot;;mix-blend-mode:normal;fill:url(#c);fill-opacity:1;stroke:#000;stroke-width:.396878;stroke-miterlimit:4;stroke-dasharray:none;stroke-opacity:1" transform="matrix(1.71567 0 0 1.71567 .212 0)"/><path d="M7.1 2.57v8.606h2.075l1.62-3.836v3.836h2.073V2.57h-2.073l-1.62 3.836V2.57Z" style="font-size:28px;line-height:1.25;font-family:&quot;SF TransRobotics&quot;;-inkscape-font-specification:&quot;SF TransRobotics&quot;;mix-blend-mode:normal;fill:url(#d);fill-opacity:1;stroke:#000;stroke-width:.396878;stroke-miterlimit:4;stroke-dasharray:none;stroke-opacity:1" transform="matrix(1.71567 0 0 1.71567 .212 0)"/><path d="M.075.325v10.918h5.077c.177 0 .335-.104.474-.312.145-.218.217-.478.217-.78V6.69c0-.26-.072-.469-.217-.625a.863.863 0 0 0-.455-.28c.17 0 .326-.11.465-.328.138-.218.207-.473.207-.765V1.418a1.35 1.35 0 0 0-.217-.765C5.487.434 5.329.325 5.152.325zm2.074 2.372h1.62v2.184h-1.62zm0 3.993h1.62v2.182h-1.62z" style="font-size:28px;line-height:1.25;font-family:&quot;SF TransRobotics&quot;;-inkscape-font-specification:&quot;SF TransRobotics&quot;;mix-blend-mode:normal;fill:url(#e);fill-opacity:1;stroke:#000;stroke-width:.396878;stroke-miterlimit:4;stroke-dasharray:none;stroke-opacity:1" transform="matrix(1.71567 0 0 1.71567 .212 0)"/><path d="M33.41 2.746v8.7h2.074V8.463l1.274 2.981h2.42l-2.045-4.348L38.2 4.636h.484l.692-1.89h-2.024a.826.826 0 0 0-.524.163c-.138.107-.253.272-.346.496l-.996 2.324V2.746Z" style="font-size:28px;line-height:1.25;font-family:&quot;SF TransRobotics&quot;;-inkscape-font-specification:&quot;SF TransRobotics&quot;;mix-blend-mode:normal;fill:url(#f);fill-opacity:1;stroke:#000;stroke-width:.396878;stroke-miterlimit:4;stroke-dasharray:none;stroke-opacity:1" transform="matrix(1.71567 0 0 1.71567 .212 0)"/><path d="M41.105 1.03c-.178 0-.339.105-.484.313a1.3 1.3 0 0 0-.207.732v8.36c0 .288.07.537.207.747.145.198.306.297.484.297h4.386l.693-2.267h-3.696V3.3h3.004l.692-2.268z" style="font-size:28px;line-height:1.25;font-family:&quot;SF TransRobotics&quot;;-inkscape-font-specification:&quot;SF TransRobotics&quot;;mix-blend-mode:normal;fill:url(#g);fill-opacity:1;stroke:#000;stroke-width:.396878;stroke-miterlimit:4;stroke-dasharray:none;stroke-opacity:1" transform="matrix(1.71567 0 0 1.71567 .212 0)"/></g></svg>