<svg xmlns="http://www.w3.org/2000/svg" xmlns:xlink="http://www.w3.org/1999/xlink" width="387.12" height="55.146" fill-rule="evenodd" clip-rule="evenodd" image-rendering="optimizeQuality" shape-rendering="geometricPrecision" text-rendering="geometricPrecision"><defs><radialGradient xlink:href="#a" id="b" cx="137.439" cy="9.033" r="98.836" fx="137.439" fy="9.033" gradientTransform="matrix(5.12481 -.03166 .00427 .69097 -418.135 18.135)" gradientUnits="userSpaceOnUse"/><linearGradient id="a"><stop offset="0" style="stop-color:#926c5e;stop-opacity:1"/><stop offset="1" style="stop-color:#926c5e;stop-opacity:0"/></linearGradient></defs><path d="m3.38 12.293 7.918-10.57c.72-.96 1.596-1.312 2.418-1.095.83.215 1.608.996 2.143 2.277l13.306 31.799c.538 1.287.736 2.85.614 4.316-.12 1.487-.557 2.874-1.273 3.83l-7.919 10.57c-.72.961-1.596 1.316-2.417 1.097-.83-.214-1.609-.994-2.144-2.275L2.718 20.436c-.539-1.287-.737-2.852-.615-4.319.12-1.483.556-2.862 1.277-3.824zm28.15 10.441c-.036.61-.343 1.053-.685.987-.341-.066-.589-.614-.552-1.224a28.16 28.16 0 0 0-.265-5.927c-.287-1.87-.773-3.681-1.465-5.335-.756-1.81-1.682-3.247-2.705-4.296-1.065-1.092-2.242-1.77-3.45-2.015-.34-.069-.586-.62-.547-1.23.039-.609.347-1.047.688-.977a10.2 18.218 0 0 1 3.927 2.3c1.174 1.202 2.23 2.839 3.087 4.884.785 1.876 1.337 3.94 1.665 6.077.34 2.216.438 4.511.302 6.756zm-3.054-.765c-.018.611-.31 1.082-.653 1.05-.342-.032-.605-.553-.587-1.165.037-1.297-.05-2.61-.265-3.875a16.048 16.048 0 0 0-.992-3.48c-.513-1.227-1.135-2.213-1.821-2.946a6.368 11.373 0 0 0-2.317-1.48c-.34-.089-.575-.653-.525-1.26.05-.606.367-1.027.706-.937.972.26 1.917.856 2.774 1.771.828.886 1.573 2.062 2.182 3.518.538 1.285.93 2.696 1.18 4.164.259 1.516.362 3.088.318 4.64zM9.152 50.719c.338.109.562.688.5 1.291-.06.604-.385 1.005-.723.894-1.244-.404-2.449-1.22-3.542-2.431-1.055-1.167-2.007-2.698-2.792-4.574-.855-2.046-1.435-4.319-1.748-6.67a32.278 32.278 0 0 1-.122-7.38c.059-.603.382-1.008.72-.902.338.107.565.683.505 1.288-.21 2.137-.18 4.345.104 6.479.274 2.049.784 4.042 1.54 5.85.693 1.655 1.528 3 2.45 4.021.96 1.062 2.017 1.778 3.108 2.134zm.52-5.42c.334.143.54.74.46 1.336-.08.596-.416.963-.749.82a7.586 13.55 0 0 1-2.4-1.86 7.564 13.51 0 0 1-1.903-3.199c-.609-1.455-1.03-3.065-1.27-4.735a24.017 24.017 0 0 1-.166-5.253c.049-.607.364-1.029.703-.943.34.086.577.65.528 1.256a20.076 20.076 0 0 0 .139 4.387c.199 1.383.552 2.727 1.065 3.954.456 1.089.996 1.987 1.588 2.685A6.358 11.356 0 0 0 9.673 45.3zm12.775-2.181c.591-.789 1.429-.583 1.876.484.441 1.056.327 2.554-.271 3.352-.367.489-.83.595-1.234.35a1.343 2.399 0 0 1-.643-.835c-.44-1.055-.326-2.552.272-3.351zm-6.533 6.446L27.76 33.752 15.389 4.19 3.544 20Z" style="fill:#926c5e;fill-opacity:.905882;stroke:#000;stroke-width:1.13989;stroke-miterlimit:4;stroke-dasharray:none;stroke-opacity:1"/><text xml:space="preserve" x="60.188" y="35.025" style="font-size:42.8558px;line-height:1.25;font-family:sans-serif;fill:url(#b);fill-opacity:1;stroke:#000;stroke-width:1.75;stroke-miterlimit:4;stroke-dasharray:none;stroke-opacity:1" transform="scale(.75383 1.32656)"><tspan x="60.188" y="35.025" style="fill:url(#b);fill-opacity:1;stroke:#000;stroke-width:1.75;stroke-miterlimit:4;stroke-dasharray:none;stroke-opacity:1"><tspan style="font-style:normal;font-variant:normal;font-weight:400;font-stretch:normal;font-family:&quot;SF TransRobotics&quot;;-inkscape-font-specification:&quot;SF TransRobotics&quot;;fill:url(#b);fill-opacity:1;stroke:#000;stroke-width:1.75;stroke-miterlimit:4;stroke-dasharray:none;stroke-opacity:1">+375293492975</tspan> </tspan></text></svg>