<?xml version="1.0" encoding="UTF-8" standalone="no"?>
<svg
   width="404.59415"
   height="55.411339"
   fill-rule="evenodd"
   clip-rule="evenodd"
   image-rendering="optimizeQuality"
   shape-rendering="geometricPrecision"
   text-rendering="geometricPrecision"
   version="1.1"
   id="svg1174"
   sodipodi:docname="phone_number2.svg"
   inkscape:version="1.1.2 (0a00cf5339, 2022-02-04)"
   xmlns:inkscape="http://www.inkscape.org/namespaces/inkscape"
   xmlns:sodipodi="http://sodipodi.sourceforge.net/DTD/sodipodi-0.dtd"
   xmlns:xlink="http://www.w3.org/1999/xlink"
   xmlns="http://www.w3.org/2000/svg"
   xmlns:svg="http://www.w3.org/2000/svg">
  <sodipodi:namedview
     id="namedview1176"
     pagecolor="#ffffff"
     bordercolor="#666666"
     borderopacity="1.0"
     inkscape:pageshadow="2"
     inkscape:pageopacity="0.0"
     inkscape:pagecheckerboard="0"
     showgrid="false"
     fit-margin-top="0"
     fit-margin-left="0"
     fit-margin-right="0"
     fit-margin-bottom="0"
     inkscape:zoom="1.3155765"
     inkscape:cx="71.071503"
     inkscape:cy="28.504613"
     inkscape:window-width="1850"
     inkscape:window-height="1016"
     inkscape:window-x="70"
     inkscape:window-y="27"
     inkscape:window-maximized="1"
     inkscape:current-layer="svg1174" />
  <defs
     id="defs1164">
    <radialGradient
       xlink:href="#a"
       id="b"
       cx="137.439"
       cy="9.033"
       r="98.835999"
       fx="137.439"
       fy="9.033"
       gradientTransform="matrix(5.1248119,-0.03166001,0.00427,0.69097025,-394.59403,18.704802)"
       gradientUnits="userSpaceOnUse" />
    <linearGradient
       id="a">
      <stop
         offset="0"
         style="stop-color:#926c5e;stop-opacity:1"
         id="stop1159" />
      <stop
         offset="1"
         style="stop-color:#926c5e;stop-opacity:0"
         id="stop1161" />
    </linearGradient>
  </defs>
  <path
     d="M 4.9379634,12.425833 16.879949,1.8558326 c 1.085909,-0.96000003 2.407098,-1.31200003 3.646844,-1.09500003 1.251813,0.215 2.425199,0.99600003 3.232088,2.27700003 L 43.827087,34.836833 c 0.811415,1.287 1.11004,2.85 0.92604,4.316 -0.180985,1.487 -0.840072,2.874 -1.919949,3.83 l -11.943492,10.57 c -1.08591,0.961 -2.407098,1.316 -3.645337,1.097 -1.251812,-0.214 -2.426706,-0.994 -3.233597,-2.275 l -20.0712216,-31.806 c -0.812923,-1.287 -1.111549,-2.852 -0.927547,-4.319 0.180985,-1.483 0.838563,-2.862 1.92598,-3.824 z m 42.4560336,10.441 c -0.0543,0.61 -0.517315,1.053 -1.033122,0.987 -0.514298,-0.066 -0.888333,-0.614 -0.832531,-1.224 a 42.471116,28.16 0 0 0 -0.399674,-5.927 c -0.432855,-1.87 -1.165844,-3.681 -2.209524,-5.335 -1.140205,-1.8100004 -2.536804,-3.2470004 -4.0797,-4.2960004 -1.606241,-1.092 -3.3814,-1.77 -5.203315,-2.015 -0.512791,-0.069 -0.88381,-0.62 -0.824989,-1.23 0.05882,-0.609 0.523347,-1.047 1.037646,-0.977 a 15.383714,18.218 0 0 1 5.922731,2.3 c 1.770634,1.202 3.363301,2.839 4.655835,4.8840004 1.183943,1.876 2.016474,3.94 2.511164,6.077 0.512792,2.216 0.660596,4.511 0.455479,6.756 z m -4.606065,-0.765 c -0.02715,0.611 -0.467543,1.082 -0.984859,1.05 -0.515806,-0.032 -0.912466,-0.553 -0.885318,-1.165 0.05581,-1.297 -0.07541,-2.61 -0.399675,-3.875 a 24.20371,16.048 0 0 0 -1.496141,-3.48 c -0.77371,-1.227 -1.711815,-2.213 -2.746445,-2.946 a 9.6042637,11.373 0 0 0 -3.494516,-1.48 c -0.512791,-0.089 -0.86722,-0.6530004 -0.791809,-1.2600004 0.07541,-0.606 0.553512,-1.027 1.064794,-0.937 1.465978,0.26 2.891233,0.856 4.183768,1.771 1.248795,0.8860004 2.37241,2.0620004 3.290907,3.5180004 0.811415,1.285 1.402632,2.696 1.779685,4.164 0.390625,1.516 0.545971,3.088 0.479609,4.64 z m -29.144596,28.75 c 0.509774,0.109 0.847612,0.688 0.754103,1.291 -0.09049,0.604 -0.580659,1.005 -1.090433,0.894 -1.87621,-0.404 -3.6935997,-1.22 -5.3420703,-2.431 -1.5911583,-1.167 -3.0269723,-2.698 -4.2109143,-4.574 -1.289517,-2.046 -2.164278,-4.319 -2.636347,-6.67 a 48.681914,32.278 0 0 1 -0.18400101,-7.38 c 0.08898,-0.603 0.57613501,-1.008 1.08590901,-0.902 0.509774,0.107 0.852137,0.683 0.761645,1.288 -0.316723,2.137 -0.271477,4.345 0.156854,6.479 0.413248,2.049 1.182434,4.042 2.322639,5.85 1.045187,1.655 2.30454,3 3.6951074,4.021 1.4478792,1.062 3.0420542,1.778 4.6875082,2.134 z m 0.784268,-5.42 c 0.503741,0.143 0.814431,0.74 0.693775,1.336 -0.120657,0.596 -0.627414,0.963 -1.129648,0.82 a 11.44126,13.55 0 0 1 -3.619697,-1.86 11.408079,13.51 0 0 1 -2.8701176,-3.199 c -0.918499,-1.455 -1.553454,-3.065 -1.915424,-4.735 a 36.222613,24.017 0 0 1 -0.250362,-5.253 c 0.0739,-0.607 0.548988,-1.029 1.06027,-0.943 0.51279,0.086 0.870235,0.65 0.796333,1.256 a 30.278769,20.076 0 0 0 0.209641,4.387 c 0.300133,1.383 0.8325304,2.727 1.6062408,3.954 0.6877424,1.089 1.5021738,1.987 2.3950328,2.685 a 9.5891816,11.356 0 0 0 3.025464,1.553 z m 19.267347,-2.181 c 0.89135,-0.789 2.155228,-0.583 2.829397,0.484 0.665119,1.056 0.493184,2.554 -0.408723,3.352 -0.553513,0.489 -1.251814,0.595 -1.861129,0.35 a 2.0255223,2.399 0 0 1 -0.969777,-0.835 c -0.663611,-1.055 -0.491676,-2.552 0.410232,-3.351 z m -9.853117,6.446 17.866222,-15.812 L 23.050024,4.3228326 5.1853094,20.132833 Z"
     style="fill:#926c5e;fill-opacity:0.905882;stroke:#000000;stroke-width:1.39989;stroke-miterlimit:4;stroke-dasharray:none;stroke-opacity:1"
     id="path1166" />
  <text
     xml:space="preserve"
     x="83.729141"
     y="35.59481"
     style="font-size:42.8558px;line-height:1.25;font-family:sans-serif;fill:url(#b);fill-opacity:1;stroke:#000000;stroke-width:1.75;stroke-miterlimit:4;stroke-dasharray:none;stroke-opacity:1"
     transform="scale(0.75382973,1.3265595)"
     id="text1172"><tspan
       x="83.729141"
       y="35.59481"
       style="fill:url(#b);fill-opacity:1;stroke:#000000;stroke-width:1.75;stroke-miterlimit:4;stroke-dasharray:none;stroke-opacity:1"
       id="tspan1170"><tspan
   style="font-style:normal;font-variant:normal;font-weight:400;font-stretch:normal;font-family:'SF TransRobotics';-inkscape-font-specification:'SF TransRobotics';fill:url(#b);fill-opacity:1;stroke:#000000;stroke-width:1.75;stroke-miterlimit:4;stroke-dasharray:none;stroke-opacity:1"
   id="tspan1168">+375293492975</tspan> </tspan></text>
</svg>
