<svg xmlns="http://www.w3.org/2000/svg" width="21.086" height="25.006" version="1.0" viewBox="0 0 15.814 18.754"><path d="M2.927.095c-.562.172-1.443.526-1.78.716C.343 1.27 0 2.028 0 3.353c0 2.755 1.927 6.964 4.765 10.388 2.4 2.897 5.723 5.007 7.887 5.013.509 0 .597-.018.964-.189.674-.32 1.289-1.035 1.963-2.282.153-.29.26-.544.23-.568-.195-.171-4.044-3.14-4.08-3.14-.017 0-.194.143-.383.32-.19.178-.52.408-.74.515-.336.171-.449.195-.839.189-.514 0-.87-.119-1.419-.467-.993-.633-3.057-3.092-3.707-4.423-.337-.686-.467-1.188-.431-1.69.047-.61.283-1 1.117-1.869l.71-.739-.154-.278c-.083-.154-.65-1.14-1.26-2.2C3.796.504 3.483.014 3.4.002c-.065-.006-.278.035-.473.094Z" style="stroke-width:.0591224"/></svg>