<svg xmlns="http://www.w3.org/2000/svg" width="22.13" height="22.4" viewBox="0 0 5.855 5.927"><path d="M99.568 143.603c-.068.055-.085.105-.08.23.006.137.039.183.178.242.198.085.02.08 2.723.08 1.798.001 2.456-.003 2.538-.012a.685.685 0 0 0 .223-.062c.164-.068.194-.112.193-.275-.003-.141-.032-.188-.153-.248-.068-.035-.127-.049-.768-.184-.786-.165-.825-.17-1.051-.14-.21.026-.29.059-.435.174-.154.126-.168.13-.49.132a2.076 2.076 0 0 1-.335-.015l-.087-.016-.114-.092a.994.994 0 0 0-.182-.12 1.362 1.362 0 0 0-.546-.073c-.12.01-1.37.27-1.481.31a.467.467 0 0 0-.133.069z" style="stroke-width:.00130487" transform="translate(-99.487 -143.22)"/><path d="M101.71 144.632v.312l-.095.027c-.11.03-.13.044-.14.093-.011.05.015.095.067.113.037.013.16-.018.976-.25.983-.28 1.006-.29 1.006-.364 0-.074-.087-.11-.197-.081l-.036.01-.001-.091v-.091h-.786c-.43 0-.785 0-.788.004a4.78 4.78 0 0 0-.005.317zm0 .95c0 .116-.006.218-.013.224a.406.406 0 0 1-.09.032.354.354 0 0 0-.108.048c-.057.048-.014.153.066.16.044.005 1.9-.526 1.93-.552.028-.024.03-.084.004-.125-.021-.035-.085-.046-.156-.027l-.054.016v-.213c0-.117-.003-.216-.008-.22a5.834 5.834 0 0 0-.444.12c-.242.072-.593.173-.783.227l-.344.099zm0 .87v.215l-.098.03c-.122.037-.136.05-.137.115 0 .058.015.075.077.092.06.016 1.93-.517 1.955-.556.057-.096-.04-.179-.169-.144l-.049.013v-.437l-.78.222c-.43.123-.786.226-.79.23a1.852 1.852 0 0 0-.01.22zm0 .855c0 .115-.006.217-.013.223a.406.406 0 0 1-.09.032.348.348 0 0 0-.107.048c-.058.049-.023.14.061.163.042.01 1.89-.517 1.929-.55.035-.032.041-.07.02-.113-.026-.046-.085-.063-.16-.043l-.06.016v-.217c0-.12-.004-.217-.009-.218-.005 0-.36.101-.79.224l-.78.223zm0 .872v.218l-.085.025a.407.407 0 0 0-.113.048c-.03.027-.034.102-.005.127.059.05.068.047 1.04-.23.916-.26.947-.271.966-.308.02-.045-.003-.104-.05-.129-.03-.014-.102-.009-.156.012-.008.003-.014-.094-.015-.216l-.001-.221-.782.222c-.43.122-.785.226-.79.23a1.784 1.784 0 0 0-.008.223zm.502.77.238.197.055-.004.054-.004.353-.302c.283-.243.355-.31.367-.338.014-.04.015-.125 0-.125-.013 0-1.292.365-1.298.37-.004.005.1.096.231.204z" style="stroke-width:.543723" transform="translate(-99.487 -143.22)"/></svg>